<svg xmlns="http://www.w3.org/2000/svg" viewBox="0 22.831 200 154.339" fill="currentColor" role="img" aria-label="EyeHIIT eye mark">
  <path d="M99.999 154.848c-30.244 0-54.848-24.604-54.848-54.848 0-30.242 24.604-54.848 54.848-54.848 30.243 0 54.849 24.606 54.849 54.848 0 30.244-24.606 54.848-54.849 54.848zm0-103.286c-26.709 0-48.438 21.729-48.438 48.438s21.729 48.438 48.438 48.438c26.71 0 48.438-21.729 48.438-48.438s-21.728-48.438-48.438-48.438z"/>
  <path d="M99.999 119.591c-10.8 0-19.586-8.787-19.586-19.591 0-10.8 8.786-19.589 19.586-19.589 10.802 0 19.588 8.789 19.588 19.589 0 10.804-8.786 19.591-19.588 19.591zm0-32.77c-7.266 0-13.176 5.912-13.176 13.179 0 7.269 5.911 13.181 13.176 13.181s13.178-5.912 13.178-13.181c0-7.267-5.912-13.179-13.178-13.179z"/>
  <path d="M99.999 154.848c-39.817 0-76.761-19.841-98.823-53.074L0 100l1.176-1.772C23.24 64.995 60.182 45.152 99.999 45.152c39.814 0 76.759 19.843 98.821 53.076L200 100l-1.18 1.773c-22.062 33.234-59.005 53.075-98.821 53.075zM7.718 100c20.996 30.373 55.329 48.438 92.281 48.438 36.951 0 71.283-18.064 92.28-48.438-20.997-30.373-55.332-48.438-92.28-48.438-36.95 0-71.285 18.065-92.281 48.438z"/>
  <path d="M177.17 48.226h-6.41V29.241h-18.984v-6.41h25.394v25.395z"/>
  <path d="M29.24 48.226h-6.41V22.831h25.393v6.41H29.24v18.985z"/>
  <path d="M177.17 177.17h-25.394v-6.41h18.984v-18.987h6.41v25.397z"/>
  <path d="M48.223 177.17H22.83v-25.397h6.41v18.987h18.983v6.41z"/>
  <path d="M88.906 22.831v6.41h-7.394v-6.41h7.394z"/>
  <path d="M103.7 22.831v6.41h-7.401v-6.41h7.401z"/>
  <path d="M118.488 22.831v6.41h-7.395v-6.41h7.395z"/>
  <path d="M88.906 170.76v6.41h-7.394v-6.41h7.394z"/>
  <path d="M103.7 170.76v6.41h-7.401v-6.41h7.401z"/>
  <path d="M118.488 170.76v6.41h-7.395v-6.41h7.395z"/>
</svg>
